# xmcd
# 
# Track frame offsets:
#     150
#     9789
#     20583
#     33295
#     43139
#     60987
#     78217
#     93166
#     102446
#     110112
#     119890
#     132708
#     141916
#     153472
#     174148
#     185207
#     200425
#     230737
#     248096
# 
# Disc length: 3541
# 
# Revision: 5
# Processed by: cddbd v1.5.2PL0 Copyright (c) Steve Scherf et al.
# Submitted via: fre:ac v1.0.27
# 
DISCID=070dd313
DTITLE=John Mayall and the Bluesbreakers - Blues Breakers with Eric Clapton CD2
DYEAR=1966
DGENRE=Blues
TTITLE0=Crawling Up a Hill [BBC "Saturday Club" Session 4/26/65]
TTITLE1=Crocodile Walk [BBC "Saturday Club" Session 4/26/65]
TTITLE2=Bye Bye Bird [BBC "Saturday Club" Session 4/26/65]
TTITLE3=I'm Your Witchdoctor [Immediate 45 - 10/65]
TTITLE4=Telephone Blues [Immediate 45 - 10/65]
TTITLE5=Bernard Jenkins [Purdah 45 - 10/65]
TTITLE6=Lonely Years [Purdah 45 - 10/65]
TTITLE7=Cheatin' Woman [BBC "Saturday Club" Session 10/25/65]
TTITLE8=Nowhere to Turn [BBC "Saturday Club" Session 10/25/65]
TTITLE9=I'm Your Witchdoctor [BBC "Saturday Club" Session 10/25/65]
TTITLE10=On Top of the World [Unreleased Pye Studio Session 12/65]
TTITLE11=Key to Love [BBC "Saturday Club" Session 3/14/66]
TTITLE12=On Top of the World [BBC "Saturday Club" Session 3/14/66]
TTITLE13=They Call It Stormy Monday [Live at the Flamingo Club 3/17/66]
TTITLE14=Intro into Maudie [Live at the Flamingo Club 4/30/66]
TTITLE15=It Hurts to Be in Love [Live at the Flamingo Club 4/30/66]
TTITLE16=Have You Ever Loved a Woman [Live at the Flamingo Club 4/30/66]
TTITLE17=Bye Bye Bird [Live at the Flamingo Club 4/30/66]
TTITLE18=Hoochie Coochie Man [Live at the Flamingo Club 4/30/66]
EXTD=
EXTT0=
EXTT1=
EXTT2=
EXTT3=
EXTT4=
EXTT5=
EXTT6=
EXTT7=
EXTT8=
EXTT9=
EXTT10=
EXTT11=
EXTT12=
EXTT13=
EXTT14=
EXTT15=
EXTT16=
EXTT17=
EXTT18=
PLAYORDER=
